<svg width="1280" height="800" xmlns="http://www.w3.org/2000/svg" xmlns:xlink="http://www.w3.org/1999/xlink"><defs><linearGradient x1="0%" y1="99.981%" x2="63.238%" y2="35.341%" id="d"><stop stop-color="#C499FF" offset="0%"/><stop stop-color="#A179F2" offset="100%"/></linearGradient><linearGradient x1="26.88%" y1="35.017%" x2="26.88%" y2="115.645%" id="v"><stop offset="0%"/><stop stop-opacity="0" offset="100%"/></linearGradient><linearGradient x1="24.301%" y1="54.391%" x2="67.179%" y2="35.889%" id="x"><stop stop-color="#FFD426" offset="0%"/><stop stop-color="#FFD426" stop-opacity="0" offset="100%"/></linearGradient><linearGradient x1="71.469%" y1="43.761%" x2="32.343%" y2="64.263%" id="B"><stop offset="0%"/><stop stop-opacity="0" offset="100%"/></linearGradient><linearGradient x1="50%" y1="43.745%" x2="90.787%" y2="49.056%" id="G"><stop stop-color="#505C88" offset="0%"/><stop stop-color="#394677" offset="100%"/></linearGradient><linearGradient x1="71.469%" y1="46.519%" x2="32.343%" y2="57.959%" id="H"><stop offset="0%"/><stop stop-opacity="0" offset="100%"/></linearGradient><linearGradient x1="50%" y1="45.069%" x2="90.787%" y2="49.256%" id="M"><stop stop-color="#505C88" offset="0%"/><stop stop-color="#394677" offset="100%"/></linearGradient><linearGradient x1="71.469%" y1="47.156%" x2="2.157%" y2="56.688%" id="N"><stop offset="0%"/><stop stop-opacity="0" offset="100%"/></linearGradient><linearGradient x1="-113.147%" y1="95.884%" x2="67.181%" y2="58.6%" id="P"><stop stop-color="#B8F53D" offset="0%"/><stop stop-color="#96DB0B" offset="100%"/></linearGradient><linearGradient x1="23.095%" y1="0%" x2="76.905%" y2="100%" id="R"><stop stop-color="#B8F53D" offset="0%"/><stop stop-color="#96DB0B" offset="100%"/></linearGradient><linearGradient x1="75.029%" y1="34.239%" x2="-.541%" y2="108.991%" id="S"><stop offset="0%"/><stop stop-opacity="0" offset="100%"/></linearGradient><linearGradient x1="42.065%" y1="44.099%" x2="58.162%" y2="78.478%" id="U"><stop offset="0%"/><stop stop-opacity="0" offset="100%"/></linearGradient><linearGradient x1="41.768%" y1="44.099%" x2="58.468%" y2="78.478%" id="X"><stop offset="0%"/><stop stop-opacity="0" offset="100%"/></linearGradient><linearGradient x1="88.728%" y1="49.977%" x2="11.577%" y2="50%" id="Y"><stop offset="0%"/><stop stop-opacity="0" offset="100%"/></linearGradient><linearGradient x1="24.301%" y1="54.391%" x2="67.179%" y2="35.889%" id="Z"><stop stop-color="#FFD426" offset="0%"/><stop stop-color="#FFD426" stop-opacity="0" offset="100%"/></linearGradient><linearGradient x1="-4.884%" y1="69.337%" x2="90.787%" y2="47.082%" id="aa"><stop stop-color="#262626" offset="0%"/><stop stop-color="#372F33" offset="100%"/></linearGradient><linearGradient x1="37.086%" y1="43.745%" x2="90.787%" y2="49.056%" id="ad"><stop stop-color="#4C4C4C" offset="0%"/><stop stop-color="#372F33" offset="100%"/></linearGradient><linearGradient x1="71.469%" y1="46.519%" x2="32.343%" y2="57.959%" id="ae"><stop offset="0%"/><stop stop-opacity="0" offset="100%"/></linearGradient><linearGradient x1="71.469%" y1="43.761%" x2="32.343%" y2="64.263%" id="ah"><stop offset="0%"/><stop stop-opacity="0" offset="100%"/></linearGradient><linearGradient x1="37.086%" y1="45.069%" x2="90.787%" y2="49.256%" id="ak"><stop stop-color="#4C4C4C" offset="0%"/><stop stop-color="#372F33" offset="100%"/></linearGradient><linearGradient x1="71.469%" y1="47.156%" x2="2.157%" y2="56.688%" id="al"><stop offset="0%"/><stop stop-opacity="0" offset="100%"/></linearGradient><linearGradient x1="75.029%" y1="34.239%" x2="-.541%" y2="108.991%" id="ao"><stop offset="0%"/><stop stop-opacity="0" offset="100%"/></linearGradient><linearGradient x1="42.065%" y1="44.099%" x2="58.162%" y2="78.478%" id="aq"><stop offset="0%"/><stop stop-opacity="0" offset="100%"/></linearGradient><linearGradient x1="85.658%" y1="9.082%" x2="-20.038%" y2="81.457%" id="as"><stop offset="0%"/><stop stop-opacity="0" offset="100%"/></linearGradient><linearGradient x1="43.164%" y1="44.099%" x2="57.032%" y2="78.478%" id="av"><stop offset="0%"/><stop stop-opacity="0" offset="100%"/></linearGradient><linearGradient x1="88.728%" y1="49.977%" x2="11.577%" y2="50%" id="ax"><stop offset="0%"/><stop stop-opacity="0" offset="100%"/></linearGradient><path d="M39.83 0h500.34c13.85 0 18.872 1.442 23.935 4.15 5.063 2.708 9.037 6.682 11.745 11.745C578.558 20.958 580 25.98 580 39.83v594.34c0 13.85-1.442 18.872-4.15 23.935-2.708 5.063-6.682 9.037-11.745 11.745-5.063 2.708-10.085 4.15-23.935 4.15H39.83c-13.85 0-18.872-1.442-23.935-4.15-5.063-2.708-9.037-6.682-11.745-11.745C1.442 653.042 0 648.02 0 634.17V39.83c0-13.85 1.442-18.872 4.15-23.935 2.708-5.063 6.682-9.037 11.745-11.745C20.958 1.442 25.98 0 39.83 0z" id="a"/><path d="M2.57 6.42C3.113 3.2 6.209.591 9.463.591h1.79c3.264 0 6.4 2.614 6.998 5.816l1.329 7.111c.3 1.604-.438 3.796-1.649 4.896L10.357 25.3l-7.309-6.852c-1.193-1.118-1.94-3.334-1.669-4.947l1.192-7.082z" id="h"/><path d="M2.071 11.836c0-.817.67-1.48 1.47-1.48h13.63c.813 0 1.471.657 1.471 1.48 0 .817-.67 1.48-1.47 1.48H3.542c-.812 0-1.47-.657-1.47-1.48z" id="j"/><path d="M13.253 22.221c-.456-.179-.825-.724-.825-1.203V16.57H8.285v4.447c0 .485-.377 1.027-.824 1.203L0 25.152v2.663h20.714v-2.663l-7.461-2.93z" id="l"/><path d="M.296 24.856l5.03-1.775s3.206 3.55 4.883 3.55 5.178-3.55 5.178-3.55l5.03 1.775v4.735H.297v-4.735z" id="n"/><path d="M2.96 8.279c0-4.082 3.32-7.391 7.397-7.391a7.394 7.394 0 017.397 7.39v2.67l-.276 2.117c-.337 2.59-2.547 5.57-4.917 6.647l-1.393.633c-.448.203-1.18.201-1.623 0l-1.392-.633c-2.378-1.081-4.58-4.055-4.918-6.647l-.276-2.116v-2.67z" id="p"/><path d="M0 12.724c1.184-.888 1.48-2.515 1.48-4.734C1.48 3.847 5.32 0 10.06 0s8.582 3.874 8.582 8.285c0 .861.296 2.516 1.036 3.55-3.107.593-6.697-2.9-7.091-4.437-.455.592-.455 1.331-.159 1.923-2.526-.502-4.148-1.45-5.386-2.663-1.113 1.924-2.9 6.066-7.042 6.066z" id="r"/><path d="M0 20.506c0 11.326 9.181 20.507 20.506 20.507 11.326 0 20.507-9.181 20.507-20.507C41.013 9.181 31.832 0 20.506 0 9.181 0 0 9.181 0 20.506z" id="t"/><path d="M100.255 169.689C132.507 128.97 132.507-.034 54.021.014 24.186.034.047 24.2 0 54.036c-.127 79.773 77.081 144.91 100.255 115.653z" id="u"/><path d="M2.515 32.11a4.333 4.333 0 004.443 2.95l42.738-3.288a6.419 6.419 0 005.248-9.27L48.373 9.357a6.419 6.419 0 00-8.984-2.67L4.365 27.192a4.17 4.17 0 00-1.85 4.918z" id="y"/><path d="M5.319 17.322L30.425 1.507l4.623 12.759-24.844 12.31a5.102 5.102 0 01-6.78-2.195 5.38 5.38 0 011.895-7.06z" id="A"/><path d="M5.907 41.785a4.333 4.333 0 004.443 2.95l42.738-3.288a6.419 6.419 0 005.25-9.27l-6.573-13.144a6.419 6.419 0 00-8.983-2.669L7.757 36.866a4.17 4.17 0 00-1.85 4.919z" id="D"/><path d="M209.82 35.421c11.46 13.54 12.472 47.39-24.943 40.996-37.415-6.394-63.032-50.775-99.436-44.381-36.404 6.394-66.392 30.528-73.807 33.913-7.416 3.385-17.191-6.77-7.079-14.293C14.667 44.134 50.722 7.965 83.081 1.571c32.36-6.394 115.279 20.31 126.74 33.85z" id="F"/><path d="M6.508 16.157L32.702 1.37l3.629 12.9-24.114 13.258a6.093 6.093 0 01-8.38-2.607 6.643 6.643 0 012.67-8.764z" id="J"/><path d="M272.87 37.326c13.706 14.513 14.916 50.795-29.833 43.942-44.749-6.853-75.388-54.424-118.927-47.57C80.57 40.55 42.272 66.351 33.403 69.98c-8.869 3.628-20.56-7.256-8.466-15.32 12.095-8.062 57.65-46.764 96.351-53.617 38.702-6.854 137.874 21.77 151.581 36.283z" id="L"/><path d="M123.604.52c10.765 0 25.52 7.04 27.613 32.041l.204.21-.14.628c.543 7.61-.067 16.844-2.279 27.995-9.675 48.78-17.738 58.053 12.9 96.351-51.602 25.398-79.825-12.092-87.481-45.958 6.339-3.017 11.16-6.447 14.464-10.29-21.774.99-39.717-12.473-44.7-15.108-6.58-3.48-4.837-20.157 8.063-14.11 10.856 5.09 23.861 16.514 42.239 6.507-.952-19.455-10.16-26.213-4.747-39.564C101.834 9.389 109.494.52 123.604.52z" id="Q"/><path d="M18.238 3.189c2.747 0 5.438-.246 8.05-.716 2.086 14.115 8.306 26.885 17.39 37.038a92.937 92.937 0 00-5.587 13.726C32.516 70.844 31.168 86.8 11.78 82.63c-19.388-4.171 8.963-12.164 12.585-32.077.26-1.434.501-2.838.721-4.213-2.094.01-4.242-.251-6.443-.785C10.29 43.53 5.035 29.106 2.881 2.284a29.781 29.781 0 01-.266-1.87 45.08 45.08 0 0015.623 2.775z" id="V"/><path d="M25.541 18.689L51.723 2.198 55.85 13.59 26.454 26.966a7.92 7.92 0 01-3.234.71l-14.014.082a1.44 1.44 0 01-.512-2.79l16.847-6.279z" id="ab"/><path d="M187.367 31.63c10.234 12.092 11.137 42.32-22.274 36.61-33.411-5.71-56.287-45.342-88.795-39.632-32.509 5.71-59.287 27.26-65.91 30.283-6.621 3.023-15.35-6.045-6.32-12.763 9.03-6.717 41.226-39.016 70.123-44.725 28.896-5.71 102.942 18.136 113.176 30.227z" id="ac"/><path d="M30.9 17.963L56.603 2.16l3.24 11.52-27.49 13.417a7.92 7.92 0 01-5.69.487L9.742 22.652a1.44 1.44 0 01.335-2.82l17.388-.81a7.2 7.2 0 003.436-1.06z" id="ag"/><path d="M271.029 33.331c12.24 12.96 13.32 45.36-26.64 39.24-39.96-6.12-67.32-48.6-106.2-42.48-38.88 6.12-73.08 29.16-81 32.4-7.92 3.24-18.36-6.48-7.56-13.68 10.8-7.2 51.48-41.76 86.04-47.88 34.56-6.12 123.12 19.44 135.36 32.4z" id="aj"/><path d="M110.377.464c9.613 0 22.789 6.287 24.658 28.613l.182.187-.124.563c.484 6.796-.061 15.04-2.036 24.997-8.64 43.56-15.84 51.84 11.52 86.04-46.08 22.68-71.283-10.798-78.12-41.04 5.66-2.694 9.966-5.757 12.916-9.188-19.444.883-35.466-11.139-39.916-13.492-5.876-3.107-4.32-18 7.2-12.6 9.694 4.545 21.307 14.747 37.718 5.811-.85-17.373-9.072-23.408-4.238-35.33 10.8-26.64 17.64-34.56 30.24-34.56z" id="an"/><path d="M55.82 0c10.74 0 20.034 6.189 24.512 15.195 14.221 3.422 24.788 16.227 24.788 31.5 0 3.943-.705 7.722-1.995 11.218a32.277 32.277 0 012.242 11.86c0 17.614-14.054 31.945-31.56 32.39a26.174 26.174 0 01-16.721 6.004c-6.61 0-12.649-2.44-17.267-6.468a23.14 23.14 0 01-3.093.207c-12.725 0-23.04-10.316-23.04-23.04 0-6.138 2.4-11.715 6.313-15.845C8.352 58.942 0 47.854 0 34.814c0-16.502 13.378-29.88 29.88-29.88 2.991 0 5.88.44 8.605 1.258A27.241 27.241 0 0155.819 0z" id="ar"/><path d="M33.966 9.78l-.063.268a27.446 27.446 0 00-.695 6.152c0 8.334 3.726 15.797 9.603 20.816-1.3 2.006-2.641 3.813-4.02 5.42a83.391 83.391 0 00-6.936 15.904c-4.979 15.723-6.183 29.971-23.496 26.247s8.005-10.862 11.239-28.644c.232-1.28.447-2.534.644-3.762-1.87.01-3.788-.225-5.754-.701C7.028 49.672 2.337 36.792.413 12.84a27.66 27.66 0 01-.236-7.767c1.379.216 2.792.327 4.231.327A27.237 27.237 0 0020.594.101a27.408 27.408 0 0013.372 9.68z" id="au"/><path d="M364.18 0c4.458 0 6.075.464 7.704 1.336a9.086 9.086 0 013.78 3.78c.872 1.63 1.336 3.246 1.336 7.703v50.362c0 4.457-.464 6.074-1.336 7.703a9.086 9.086 0 01-3.78 3.78c-1.63.872-3.246 1.336-7.703 1.336H39.819c-4.457 0-6.074-.464-7.703-1.336a9.086 9.086 0 01-3.78-3.78C27.464 69.254 27 67.638 27 63.181V40.25C11.012 32.804 2.012 22.364 0 8.931c11.61 4.407 20.667 4.451 27.169.132.206-1.834.6-2.888 1.167-3.947a9.086 9.086 0 013.78-3.78C33.746.464 35.362 0 39.819 0h324.362z" id="az"/><path d="M364.18 0c4.458 0 6.075.464 7.704 1.336a9.086 9.086 0 013.78 3.78c.872 1.63 1.336 3.246 1.336 7.703v110.362c0 4.457-.464 6.074-1.336 7.703a9.086 9.086 0 01-3.78 3.78c-1.63.872-3.246 1.336-7.703 1.336H39.819c-4.457 0-6.074-.464-7.703-1.336a9.086 9.086 0 01-3.78-3.78c-.872-1.63-1.336-3.246-1.336-7.703V40.204C11.012 32.784 2.012 22.383 0 9c11.606 4.388 20.66 4.434 27.16.136.204-1.88.602-2.947 1.176-4.02a9.086 9.086 0 013.78-3.78C33.746.464 35.362 0 39.819 0h324.362z" id="aB"/><filter x="-10.9%" y="-4.8%" width="121.8%" height="118.7%" filterUnits="objectBoundingBox" id="b"><feMorphology radius="14.464" in="SourceAlpha" result="shadowSpreadOuter1"/><feOffset dy="31" in="shadowSpreadOuter1" result="shadowOffsetOuter1"/><feGaussianBlur stdDeviation="31" in="shadowOffsetOuter1" result="shadowBlurOuter1"/><feComposite in="shadowBlurOuter1" in2="SourceAlpha" operator="out" result="shadowBlurOuter1"/><feColorMatrix values="0 0 0 0 0 0 0 0 0 0 0 0 0 0 0 0 0 0 0.15 0" in="shadowBlurOuter1"/></filter><filter x="-4.1%" y="-3%" width="108.2%" height="106.4%" filterUnits="objectBoundingBox" id="i"><feGaussianBlur stdDeviation=".5" in="SourceAlpha" result="shadowBlurInner1"/><feOffset in="shadowBlurInner1" result="shadowOffsetInner1"/><feComposite in="shadowOffsetInner1" in2="SourceAlpha" operator="arithmetic" k2="-1" k3="1" result="shadowInnerInner1"/><feColorMatrix values="0 0 0 0 0.501960784 0 0 0 0 0 0 0 0 0 0 0 0 0 0.3 0" in="shadowInnerInner1"/></filter><filter x="-4.5%" y="-25.3%" width="109.1%" height="150.7%" filterUnits="objectBoundingBox" id="k"><feGaussianBlur stdDeviation=".5" in="SourceAlpha" result="shadowBlurInner1"/><feOffset in="shadowBlurInner1" result="shadowOffsetInner1"/><feComposite in="shadowOffsetInner1" in2="SourceAlpha" operator="arithmetic" k2="-1" k3="1" result="shadowInnerInner1"/><feColorMatrix values="0 0 0 0 0.4 0 0 0 0 0 0 0 0 0 0 0 0 0 0.3 0" in="shadowInnerInner1"/></filter><filter x="-3.6%" y="-6.7%" width="107.2%" height="113.3%" filterUnits="objectBoundingBox" id="m"><feGaussianBlur stdDeviation=".5" in="SourceAlpha" result="shadowBlurInner1"/><feOffset in="shadowBlurInner1" result="shadowOffsetInner1"/><feComposite in="shadowOffsetInner1" in2="SourceAlpha" operator="arithmetic" k2="-1" k3="1" result="shadowInnerInner1"/><feColorMatrix values="0 0 0 0 0.4 0 0 0 0 0 0 0 0 0 0 0 0 0 0.3 0" in="shadowInnerInner1"/></filter><filter x="-3.7%" y="-12.2%" width="107.5%" height="123.7%" filterUnits="objectBoundingBox" id="o"><feGaussianBlur stdDeviation=".5" in="SourceAlpha" result="shadowBlurInner1"/><feOffset in="shadowBlurInner1" result="shadowOffsetInner1"/><feComposite in="shadowOffsetInner1" in2="SourceAlpha" operator="arithmetic" k2="-1" k3="1" result="shadowInnerInner1"/><feColorMatrix values="0 0 0 0 0.501960784 0 0 0 0 0 0 0 0 0 0 0 0 0 0.3 0" in="shadowInnerInner1"/></filter><filter x="-5.1%" y="-3.8%" width="110.1%" height="107.6%" filterUnits="objectBoundingBox" id="q"><feGaussianBlur stdDeviation=".5" in="SourceAlpha" result="shadowBlurInner1"/><feOffset in="shadowBlurInner1" result="shadowOffsetInner1"/><feComposite in="shadowOffsetInner1" in2="SourceAlpha" operator="arithmetic" k2="-1" k3="1" result="shadowInnerInner1"/><feColorMatrix values="0 0 0 0 0.4 0 0 0 0 0 0 0 0 0 0 0 0 0 0.3 0" in="shadowInnerInner1"/></filter><filter x="-3.8%" y="-5.9%" width="107.6%" height="111.8%" filterUnits="objectBoundingBox" id="s"><feGaussianBlur stdDeviation=".5" in="SourceAlpha" result="shadowBlurInner1"/><feOffset in="shadowBlurInner1" result="shadowOffsetInner1"/><feComposite in="shadowOffsetInner1" in2="SourceAlpha" operator="arithmetic" k2="-1" k3="1" result="shadowInnerInner1"/><feColorMatrix values="0 0 0 0 0.501960784 0 0 0 0 0 0 0 0 0 0 0 0 0 0.3 0" in="shadowInnerInner1"/></filter><filter x="-12.6%" y="-48.7%" width="125%" height="223.7%" filterUnits="objectBoundingBox" id="ay"><feMorphology radius="5" in="SourceAlpha" result="shadowSpreadOuter1"/><feOffset dy="10" in="shadowSpreadOuter1" result="shadowOffsetOuter1"/><feGaussianBlur stdDeviation="15" in="shadowOffsetOuter1" result="shadowBlurOuter1"/><feColorMatrix values="0 0 0 0 0 0 0 0 0 0 0 0 0 0 0 0 0 0 0.15 0" in="shadowBlurOuter1" result="shadowMatrixOuter1"/><feMorphology radius="1" operator="dilate" in="SourceAlpha" result="shadowSpreadOuter2"/><feOffset in="shadowSpreadOuter2" result="shadowOffsetOuter2"/><feColorMatrix values="0 0 0 0 0 0 0 0 0 0 0 0 0 0 0 0 0 0 0.07 0" in="shadowOffsetOuter2" result="shadowMatrixOuter2"/><feMerge><feMergeNode in="shadowMatrixOuter1"/><feMergeNode in="shadowMatrixOuter2"/></feMerge></filter><filter x="-12.6%" y="-27.2%" width="125%" height="169.1%" filterUnits="objectBoundingBox" id="aA"><feMorphology radius="5" in="SourceAlpha" result="shadowSpreadOuter1"/><feOffset dy="10" in="shadowSpreadOuter1" result="shadowOffsetOuter1"/><feGaussianBlur stdDeviation="15" in="shadowOffsetOuter1" result="shadowBlurOuter1"/><feColorMatrix values="0 0 0 0 0 0 0 0 0 0 0 0 0 0 0 0 0 0 0.15 0" in="shadowBlurOuter1" result="shadowMatrixOuter1"/><feMorphology radius="1" operator="dilate" in="SourceAlpha" result="shadowSpreadOuter2"/><feOffset in="shadowSpreadOuter2" result="shadowOffsetOuter2"/><feColorMatrix values="0 0 0 0 0 0 0 0 0 0 0 0 0 0 0 0 0 0 0.07 0" in="shadowOffsetOuter2" result="shadowMatrixOuter2"/><feMerge><feMergeNode in="shadowMatrixOuter1"/><feMergeNode in="shadowMatrixOuter2"/></feMerge></filter><filter x="-9.4%" y="-7.3%" width="118.8%" height="118.8%" filterUnits="objectBoundingBox" id="aD"><feMorphology radius=".5" in="SourceAlpha" result="shadowSpreadOuter1"/><feOffset dy="2" in="shadowSpreadOuter1" result="shadowOffsetOuter1"/><feGaussianBlur stdDeviation="2.5" in="shadowOffsetOuter1" result="shadowBlurOuter1"/><feColorMatrix values="0 0 0 0 0 0 0 0 0 0 0 0 0 0 0 0 0 0 0.07 0" in="shadowBlurOuter1" result="shadowMatrixOuter1"/><feMorphology radius=".5" operator="dilate" in="SourceAlpha" result="shadowSpreadOuter2"/><feOffset in="shadowSpreadOuter2" result="shadowOffsetOuter2"/><feColorMatrix values="0 0 0 0 0 0 0 0 0 0 0 0 0 0 0 0 0 0 0.07 0" in="shadowOffsetOuter2" result="shadowMatrixOuter2"/><feMerge><feMergeNode in="shadowMatrixOuter1"/><feMergeNode in="shadowMatrixOuter2"/></feMerge></filter><circle id="e" cx="14.795" cy="14.795" r="14.795"/><circle id="f" cx="14.795" cy="14.795" r="14.795"/><rect id="aC" x="0" y="0" width="96" height="96" rx="10"/></defs><g fill="none" fill-rule="evenodd"><g transform="translate(350 114)"><mask id="c" fill="#fff"><use xlink:href="#a"/></mask><use fill="#000" filter="url(#b)" xlink:href="#a"/><path stroke-opacity=".15" stroke="#000" stroke-width="1.036" d="M540.17-.518c13.996 0 19.064 1.476 24.18 4.211 5.154 2.757 9.2 6.803 11.957 11.958 2.735 5.115 4.21 10.183 4.21 24.18h0V634.17c0 13.996-1.475 19.064-4.21 24.18-2.757 5.154-6.803 9.2-11.958 11.957-5.115 2.735-10.183 4.21-24.18 4.21h0H39.83c-13.996 0-19.064-1.475-24.18-4.21-5.154-2.757-9.2-6.803-11.957-11.958-2.696-5.041-4.168-10.038-4.21-23.583h0V39.83c0-13.996 1.475-19.064 4.21-24.18 2.757-5.154 6.803-9.2 11.958-11.957C20.692.997 25.689-.475 39.234-.517h0z" fill="#FFF"/><g mask="url(#c)"><g transform="translate(208.179 317.399)"><rect fill="#F7F9FA" y=".813" width="76.643" height="76.629" rx="10.357"/><path d="M39.702 29.685v7.594c0 .381.31.69.69.69h7.596a1.38 1.38 0 010 2.762h-7.595a.69.69 0 00-.69.69v7.594a1.38 1.38 0 11-2.762 0V41.42a.69.69 0 00-.691-.69h-7.595a1.38 1.38 0 110-2.762h7.595a.69.69 0 00.69-.69v-7.594a1.38 1.38 0 012.762 0z" fill="#DCE2E6"/></g></g><g mask="url(#c)"><path d="M127.804 317.744h32.26c1.78 0 2.395.064 3.077.221a5.999 5.999 0 011.879.779c.593.37 1.074.76 2.332 2.018l12.95 12.947c1.258 1.259 1.648 1.74 2.02 2.333.37.593.62 1.197.778 1.88.157.682.221 1.297.221 3.077v46.058c0 2.304-.24 3.14-.69 3.982a4.696 4.696 0 01-1.953 1.953c-.843.45-1.678.69-3.982.69h-48.892c-2.304 0-3.14-.24-3.982-.69a4.696 4.696 0 01-1.953-1.953c-.45-.843-.69-1.678-.69-3.982V324.37c0-2.304.24-3.139.69-3.981a4.696 4.696 0 011.953-1.954c.843-.45 1.678-.69 3.982-.69z" fill-opacity=".1" fill="#000"/><path d="M162.01 321.306c.212.05.409.116.598.203v16.945h16.947c.088.19.154.385.203.597.079.34.111.649.111 1.538v47.433c0 .768-.08 1.047-.23 1.327-.15.281-.37.501-.651.652-.281.15-.56.23-1.327.23h-50.822c-.768 0-1.046-.08-1.327-.23-.28-.15-.5-.37-.651-.652-.15-.28-.23-.559-.23-1.327v-64.618c0-.768.08-1.046.23-1.327.15-.28.37-.501.651-.651.281-.15.56-.23 1.327-.23h33.634c.89 0 1.197.032 1.538.11z" fill="#FFF"/><path fill-opacity=".05" fill="#000" d="M162.607 338.454h17.262v17.26z"/><path d="M152.25 340.18c-10.354 0 11.842 39.453 16.947 32.186 4.369-9.641-38.263-9.641-33.894 0 5.105 7.267 27.301-32.186 16.947-32.186z" stroke="#FF4019" stroke-width="2.929"/></g><g mask="url(#c)"><path d="M102.184 380.16v-35.713c0-1.78-.065-2.395-.222-3.077a5.999 5.999 0 00-.778-1.88c-.371-.593-.761-1.073-2.019-2.332l-9.495-9.497c-1.258-1.258-1.74-1.648-2.333-2.019a5.999 5.999 0 00-1.88-.779c-.681-.157-1.297-.221-3.076-.221H32.87c-2.305 0-3.14.24-3.982.69a4.696 4.696 0 00-1.954 1.954c-.45.842-.69 1.677-.69 3.981v48.892c0 2.304.24 3.14.69 3.982a4.696 4.696 0 001.954 1.953c.842.45 1.677.69 3.981.69h62.688c2.304 0 3.14-.24 3.982-.69a4.696 4.696 0 001.953-1.953c.45-.843.69-1.678.69-3.982z" fill="#A179F2"/><path fill="#000" opacity=".07" d="M102.184 359.166v-17.262h-17.26z"/><path d="M45.534.221a5.999 5.999 0 011.88.779c.593.37 1.074.76 2.332 2.018l9.497 9.496c1.258 1.258 1.648 1.738 2.019 2.332.371.594.621 1.197.779 1.88.04.174.074.345.103.532H45V.119c.188.029.359.063.534.103z" fill="url(#d)" transform="matrix(0 -1 -1 0 102.184 386.785)"/><g fill="#FFF"><path d="M72.16 340.18c3.84 0 5.232.4 6.636 1.15a7.827 7.827 0 013.256 3.257c.75 1.403 1.15 2.796 1.15 6.635v8.982c0 3.84-.4 5.232-1.15 6.636a7.827 7.827 0 01-3.256 3.256c-1.404.75-2.796 1.15-6.636 1.15H56.268c-3.84 0-5.232-.4-6.635-1.15a7.827 7.827 0 01-3.256-3.256c-.751-1.404-1.15-2.796-1.15-6.636v-8.982c0-3.84.399-5.232 1.15-6.635a7.827 7.827 0 013.256-3.256c1.403-.751 2.796-1.15 6.635-1.15H72.16zm-17.44 21.426l-4.594 4.594c.343.359.744.662 1.196.904.806.43 1.605.669 3.69.689l.292.001h1.073l2.267-2.266-3.924-3.922zm16.183-3.452l-9.643 9.64h11.865c2.303 0 3.139-.24 3.981-.69a4.697 4.697 0 001.497-1.251l-7.7-7.7zm2.222-14.522H55.304c-2.304 0-3.14.24-3.982.69a4.696 4.696 0 00-1.953 1.954c-.431.806-.67 1.605-.69 3.689v11.204c0 .609.016 1.115.05 1.546l4.77-4.77a1.726 1.726 0 012.442 0l5.143 5.143 8.599-8.595a1.726 1.726 0 012.44 0l7.611 7.61c.008-.2.012-.413.015-.642l.001-.292v-10.912c0-2.303-.24-3.139-.69-3.981a4.696 4.696 0 00-1.954-1.954c-.842-.45-1.678-.69-3.981-.69zm-14.952 11.096a4.315 4.315 0 11-.001-8.63 4.315 4.315 0 010 8.63z"/></g></g><g mask="url(#c)"><g transform="translate(24.857 120.121)"><rect fill="#DCE2E6" width="124.286" height="12.398" rx="6.199"/><rect fill="#EDF1F2" y="24.797" width="326.25" height="12.398" rx="6.199"/><rect fill="#EDF1F2" y="49.593" width="349.036" height="12.398" rx="6.199"/><rect fill="#EDF1F2" y="74.39" width="326.25" height="12.398" rx="6.199"/></g></g><g mask="url(#c)"><g transform="translate(24.857 239.207)"><rect fill="#EDF1F2" x="37.286" y="4.142" width="234.071" height="12.426" rx="6.213"/><path d="M10.357.863c5.244 0 9.494 4.25 9.494 9.492 0 5.243-4.25 9.493-9.494 9.493-5.243 0-9.494-4.25-9.494-9.493 0-5.242 4.25-9.492 9.494-9.492zm3.736 5.915l-5.416 5.406a.432.432 0 01-.61 0L6.32 10.434a.863.863 0 00-1.298 1.132l.077.089 2.664 2.663a.865.865 0 001.22 0L15.314 8a.862.862 0 00.001-1.22h-.001a.863.863 0 00-1.22 0z" fill="#0AF"/><rect fill="#EDF1F2" x="37.286" y="35.208" width="234.071" height="12.426" rx="6.213"/><path d="M10.357 50.913c5.244 0 9.494-4.25 9.494-9.492 0-5.242-4.25-9.492-9.494-9.492-5.243 0-9.494 4.25-9.494 9.492 0 5.243 4.25 9.492 9.494 9.492zm0-1.726a7.767 7.767 0 110-15.532 7.767 7.767 0 110 15.532z" fill="#DCE2E6"/></g></g><g mask="url(#c)"><g transform="translate(24.857 469.093)"><rect x="49.714" y="10.332" width="91.143" height="12.398" rx="6.199"/><rect x="49.714" y="33.062" width="277.571" height="74.39" rx="10.357"/></g></g><g mask="url(#c)"><g transform="translate(24.857 587.143)"><rect x="49.714" y="10.332" width="91.143" height="12.398" rx="6.199"/><rect x="49.714" y="33.062" width="277.571" height="53.679" rx="10.357"/></g></g><g mask="url(#c)"><path fill="#F7F9FA" d="M414.286 84.913H580v657.56H414.286z"/><g fill="#FFF"><path d="M414.286 151.187H580v2.07H414.286zM414.286 287.876H580v2.07H414.286zM414.286 219.532H580v2.07H414.286zM414.286 356.22H580v2.072H414.286zM414.286 424.566H580v2.07H414.286zM414.286 492.91H580v2.072H414.286z"/></g><g transform="translate(432.929 105.624)" fill="#DCE2E6"><rect x="38.321" y="6.213" width="70.429" height="12.426" rx="6.213"/><path d="M14.51 0c.529 0 .964.4 1.02.922l.006.114c0 .571-.467 1.035-1.026 1.035h-1.046v1.084c5.52.522 9.84 5.169 9.84 10.825 0 6.005-4.87 10.873-10.875 10.873-6.007 0-10.875-4.868-10.875-10.873 0-5.656 4.319-10.303 9.839-10.825V2.071h-1.045a1.036 1.036 0 010-2.071h4.162zm-2.081 5.178a8.803 8.803 0 100 17.604 8.803 8.803 0 100-17.604zm0 7.248a1.553 1.553 0 110 3.107 1.553 1.553 0 010-3.107zm0-6.213a1.03 1.03 0 011.035 1.039v4.354a2.58 2.58 0 00-1.035-.215 2.58 2.58 0 00-1.036.215V7.252c0-.574.46-1.039 1.036-1.039z"/></g><g fill="#DCE2E6" transform="translate(432.929 242.313)"><rect x="38.321" y="6.213" width="70.429" height="12.426" rx="6.213"/><path d="M16.147 2.071c2.309 0 3.146.24 3.99.692a4.705 4.705 0 011.957 1.957c.451.844.692 1.681.692 3.99v7.433c0 2.309-.24 3.146-.692 3.99a4.705 4.705 0 01-1.957 1.957c-.844.451-1.681.692-3.99.692H8.71c-2.308 0-3.146-.24-3.99-.692a4.705 4.705 0 01-1.957-1.958c-.451-.843-.692-1.68-.692-3.989V8.71c0-2.308.24-3.145.692-3.989a4.705 4.705 0 011.958-1.957C5.564 2.31 6.4 2.07 8.71 2.07h7.437zm3.24 6.213H5.47c-.462 0-.63.048-.798.139a.941.941 0 00-.392.391c-.09.169-.138.336-.138.798v7.115c0 1.385.144 1.888.415 2.394.27.506.668.904 1.174 1.175.507.27 1.009.415 2.394.415h8.605c1.385 0 1.887-.145 2.394-.415.506-.271.904-.669 1.174-1.175.271-.506.415-1.009.415-2.394V9.612c0-.462-.048-.63-.138-.798a.941.941 0 00-.392-.391c-.168-.09-.336-.139-.797-.139zm-6.958 7.249a1.036 1.036 0 110 2.071 1.036 1.036 0 010-2.071zm-5.179 0a1.036 1.036 0 110 2.071 1.036 1.036 0 010-2.071zm10.357 0a1.036 1.036 0 110 2.071 1.036 1.036 0 010-2.071zM12.43 11.39a1.036 1.036 0 110 2.071 1.036 1.036 0 010-2.071zm-5.179 0a1.036 1.036 0 110 2.071 1.036 1.036 0 010-2.071zm10.357 0a1.036 1.036 0 110 2.071 1.036 1.036 0 010-2.071zm-1.035-7.249H8.286a1.036 1.036 0 100 2.071h8.286a1.036 1.036 0 100-2.07z"/></g><g fill="#DCE2E6" transform="translate(432.929 173.968)"><rect x="38.321" y="6.213" width="70.429" height="12.426" rx="6.213"/><path d="M11.393 16.568a3.107 3.107 0 010 6.214H7.25a3.107 3.107 0 110-6.214h4.144zm0 2.071H7.25a1.036 1.036 0 00-.113 2.065l.113.007h4.143a1.036 1.036 0 100-2.072zm10.358-9.32a3.107 3.107 0 110 6.214h-9.323a3.107 3.107 0 110-6.213h9.323zm-6.215-7.248a3.107 3.107 0 110 6.213H4.142a3.107 3.107 0 010-6.213h11.394zm0 2.071H4.143a1.036 1.036 0 00-.113 2.065l.113.006h11.393a1.036 1.036 0 000-2.07z"/></g><g fill="#DCE2E6" transform="translate(432.929 310.658)"><rect x="38.321" y="6.213" width="49.714" height="12.426" rx="6.213"/><path d="M12.42 2.128c1.15-.003 2.742.658 3.547 1.464l7.007 7.027a4.153 4.153 0 01-.01 5.867l-6.57 6.591a4.115 4.115 0 01-5.848-.012l-7.02-7.097c-.803-.812-1.454-2.398-1.454-3.536v-8.21c0-1.141.934-2.069 2.08-2.072l8.268-.022zm.004 1.553l-8.268.023a.528.528 0 00-.53.518v8.21c0 .73.49 1.923 1.005 2.444l7.02 7.097a2.56 2.56 0 003.643.008l6.569-6.591a2.6 2.6 0 00.01-3.674L14.867 4.69c-.513-.515-1.71-1.01-2.442-1.008zm1.596 3.087l5.949 5.948c.408.409.41 1.068 0 1.479l-5.95 5.948a1.044 1.044 0 01-1.478 0l-5.95-5.948a1.043 1.043 0 010-1.479l5.95-5.948a1.044 1.044 0 011.479 0zM6.726 5.171a1.553 1.553 0 110 3.107 1.553 1.553 0 010-3.107z"/></g><g fill="#DCE2E6" transform="translate(432.929 379.003)"><rect x="38.321" y="6.213" width="49.714" height="12.426" rx="6.213"/><path d="M14.51 0c.529 0 .964.4 1.02.922l.006.114c0 .571-.467 1.035-1.026 1.035h-1.046v1.084c5.52.522 9.84 5.169 9.84 10.825 0 6.005-4.87 10.873-10.875 10.873-6.007 0-10.875-4.868-10.875-10.873 0-5.656 4.319-10.303 9.839-10.825V2.071h-1.045a1.036 1.036 0 010-2.071h4.162zm-2.081 5.178a8.803 8.803 0 100 17.604 8.803 8.803 0 100-17.604zm0 7.248a1.553 1.553 0 110 3.107 1.553 1.553 0 010-3.107zm0-6.213a1.03 1.03 0 011.035 1.039v4.354a2.58 2.58 0 00-1.035-.215 2.58 2.58 0 00-1.036.215V7.252c0-.574.46-1.039 1.036-1.039z"/></g><g fill="#DCE2E6" transform="translate(432.929 447.347)"><rect x="38.321" y="6.213" width="60.071" height="12.426" rx="6.213"/><path d="M2.071 11.39c.572 0 1.036.464 1.036 1.036 0 4.568 3.287 8.369 7.626 9.166a2.071 2.071 0 11-.179 2.072c-5.4-.894-9.518-5.585-9.518-11.238 0-.572.463-1.035 1.035-1.035zm17.608 2.072a3.102 3.102 0 013.107 3.113v3.094a3.105 3.105 0 01-3.107 3.113h-4.143c0-.796-.3-1.523-.792-2.072h4.935c.576 0 1.035-.462 1.035-1.041v-3.094c0-.583-.459-1.042-1.035-1.042h-6.215c-.576 0-1.035.462-1.035 1.042v3.1c-.757 0-1.45.27-1.989.72a3.2 3.2 0 01-.083-.726v-3.094a3.105 3.105 0 013.107-3.113h6.215zM12.429 0c.828 0 1.543.486 1.874 1.19 5.4.893 9.518 5.584 9.518 11.236a1.036 1.036 0 01-2.071 0c0-4.568-3.288-8.369-7.627-9.166A2.071 2.071 0 1112.428 0zM9.32 2.071c0 .796.3 1.523.793 2.072H5.178c-.576 0-1.035.461-1.035 1.04v3.095c0 .583.46 1.042 1.035 1.042h6.215c.576 0 1.036-.462 1.036-1.042v-3.1c.755 0 1.448-.27 1.987-.719.055.232.084.475.084.725v3.094a3.105 3.105 0 01-3.107 3.113H5.178a3.102 3.102 0 01-3.107-3.113V5.184A3.105 3.105 0 015.178 2.07h4.143z"/></g></g><g mask="url(#c)"><path d="M36.062 22.782h91.518c4.617 0 6.291.48 7.979 1.383a9.41 9.41 0 013.915 3.915c.902 1.688 1.383 3.362 1.383 7.978v14.868c0 4.616-.48 6.29-1.383 7.978a9.41 9.41 0 01-3.915 3.915c-1.688.903-3.362 1.384-7.979 1.384H36.062c-4.616 0-6.29-.481-7.978-1.384a9.41 9.41 0 01-3.915-3.915c-.903-1.687-1.383-3.362-1.383-7.978V36.058c0-4.616.48-6.29 1.383-7.978a9.41 9.41 0 013.915-3.915c1.688-.903 3.362-1.383 7.978-1.383z" fill="#0AF"/><path d="M47.094 50.45c.969 0 1.883-.186 2.74-.558.858-.373 1.585-.97 2.181-1.79l-1.939-1.38c-.435.56-.904.967-1.407 1.222a3.408 3.408 0 01-1.557.382c-.683 0-1.302-.125-1.855-.373a4.294 4.294 0 01-1.426-1.025 4.598 4.598 0 01-.923-1.548 5.675 5.675 0 01-.326-1.957c0-.659.109-1.274.326-1.846a4.572 4.572 0 01.923-1.5 4.244 4.244 0 011.426-1.007c.553-.243 1.172-.364 1.855-.364a3.8 3.8 0 011.37.261c.454.174.923.522 1.408 1.044l1.827-1.342c-.659-.758-1.37-1.296-2.135-1.613a6.433 6.433 0 00-2.488-.475c-1.02 0-1.955.165-2.806.494a6.333 6.333 0 00-2.2 1.408 6.463 6.463 0 00-1.445 2.209c-.348.863-.522 1.824-.522 2.88 0 1.031.174 1.97.522 2.815.348.845.83 1.569 1.445 2.172a6.402 6.402 0 002.2 1.398c.851.33 1.787.494 2.806.494zm10.719-.111a5.37 5.37 0 001.901-.336 4.56 4.56 0 001.548-.95c.435-.41.78-.904 1.034-1.482.255-.578.383-1.221.383-1.93 0-.708-.128-1.351-.383-1.93a4.511 4.511 0 00-1.034-1.481 4.56 4.56 0 00-1.548-.951 5.37 5.37 0 00-1.901-.336 5.37 5.37 0 00-1.902.336 4.56 4.56 0 00-1.547.95c-.435.41-.78.905-1.035 1.483-.254.578-.382 1.22-.382 1.93 0 .708.128 1.35.382 1.929.255.578.6 1.072 1.035 1.482.435.41.95.727 1.547.95a5.37 5.37 0 001.902.336zm0-2.013c-.41 0-.777-.075-1.1-.224a2.6 2.6 0 01-.83-.597 2.526 2.526 0 01-.522-.857 2.91 2.91 0 01-.177-1.007c0-.348.06-.683.177-1.006.119-.324.293-.61.522-.858a2.6 2.6 0 01.83-.597c.323-.149.69-.223 1.1-.223.41 0 .777.074 1.1.223.323.15.6.348.83.597.23.249.403.534.521.858.118.323.177.658.177 1.006s-.059.684-.177 1.007a2.526 2.526 0 01-.522.857 2.6 2.6 0 01-.83.597c-.322.15-.689.224-1.1.224zm9.097 1.79V45.23c0-.298.038-.584.112-.857.075-.274.196-.516.364-.728.167-.21.379-.379.634-.503.254-.124.568-.186.94-.186.548 0 .94.164 1.175.494.237.33.355.773.355 1.333v5.331h2.237v-4.847c0-.285.034-.568.102-.848.069-.28.18-.528.336-.746a1.73 1.73 0 01.596-.522c.243-.13.538-.195.886-.195.335 0 .609.056.82.168.211.111.38.264.503.456.125.193.212.417.261.671.05.255.075.52.075.793v5.07h2.237v-5.331c0-.535-.056-1.035-.168-1.501a3.375 3.375 0 00-.55-1.221 2.639 2.639 0 00-.997-.82c-.41-.2-.914-.299-1.51-.299-.671 0-1.25.134-1.734.401-.485.267-.888.687-1.212 1.259-.46-1.107-1.391-1.66-2.796-1.66-.746 0-1.339.165-1.78.494-.441.33-.761.706-.96 1.128h-.038v-1.398h-2.125v8.948h2.237zm16.312 4.25v-5.388h.056c.112.15.255.302.429.457.174.155.385.301.634.438.248.137.534.249.857.336.323.087.696.13 1.119.13.634 0 1.218-.121 1.752-.363a4.082 4.082 0 001.37-.998c.38-.422.675-.92.886-1.491a5.282 5.282 0 00.317-1.846c0-.658-.1-1.274-.298-1.845a4.264 4.264 0 00-.877-1.492 4.132 4.132 0 00-1.398-.997c-.547-.242-1.162-.364-1.845-.364-.634 0-1.225.125-1.771.373a2.877 2.877 0 00-1.305 1.193h-.038v-1.342h-2.125v13.199h2.237zm2.554-6.04c-.41 0-.777-.075-1.1-.224a2.6 2.6 0 01-.83-.597 2.526 2.526 0 01-.521-.857 2.91 2.91 0 01-.177-1.007c0-.348.059-.683.177-1.006.118-.324.292-.61.522-.858a2.6 2.6 0 01.83-.597c.322-.149.69-.223 1.1-.223.41 0 .776.074 1.1.223.322.15.599.348.829.597.23.249.404.534.522.858.118.323.177.658.177 1.006s-.06.684-.177 1.007a2.526 2.526 0 01-.522.857 2.6 2.6 0 01-.83.597c-.323.15-.69.224-1.1.224zm9.228 1.79V36.021h-2.237v14.093h2.237zm6.99.223c.71 0 1.387-.137 2.033-.41.646-.274 1.23-.733 1.752-1.38l-1.603-1.211a3.902 3.902 0 01-.997.867c-.38.23-.849.344-1.408.344-.634 0-1.174-.186-1.622-.559-.447-.373-.708-.895-.783-1.566h6.823v-.615c0-.783-.102-1.476-.307-2.079-.205-.602-.491-1.109-.858-1.519a3.658 3.658 0 00-1.323-.941 4.347 4.347 0 00-1.706-.327 5.37 5.37 0 00-1.902.336 4.56 4.56 0 00-1.547.95c-.435.41-.78.905-1.035 1.483-.254.578-.382 1.22-.382 1.93 0 .708.128 1.35.382 1.929.255.578.6 1.072 1.035 1.482.435.41.95.727 1.547.95a5.37 5.37 0 001.902.336zm1.958-5.593h-4.586c.087-.646.327-1.162.718-1.547.392-.385.923-.578 1.594-.578.708 0 1.261.19 1.66.569.397.379.602.898.614 1.556zm8.054 5.593c.26 0 .562-.022.904-.065.342-.044.63-.121.867-.233v-1.883c-.137.1-.323.17-.56.214a3.621 3.621 0 01-.652.066c-.497 0-.83-.131-.997-.392-.168-.26-.252-.615-.252-1.063V43.07h2.46v-1.902h-2.46v-2.591h-2.237v2.591h-1.846v1.902h1.846v4.1c0 .523.04.983.121 1.38.08.398.23.73.448.998.217.267.515.466.894.596.38.13.867.196 1.464.196zm7.941 0c.709 0 1.386-.137 2.032-.41.647-.274 1.23-.733 1.753-1.38l-1.604-1.211a3.902 3.902 0 01-.997.867c-.379.23-.848.344-1.407.344-.634 0-1.175-.186-1.622-.559-.448-.373-.709-.895-.783-1.566h6.823v-.615c0-.783-.103-1.476-.308-2.079-.205-.602-.49-1.109-.857-1.519a3.658 3.658 0 00-1.324-.941 4.347 4.347 0 00-1.706-.327 5.37 5.37 0 00-1.901.336 4.56 4.56 0 00-1.547.95c-.435.41-.78.905-1.035 1.483-.255.578-.382 1.22-.382 1.93 0 .708.127 1.35.382 1.929.255.578.6 1.072 1.035 1.482.434.41.95.727 1.547.95a5.37 5.37 0 001.901.336zm1.958-5.593h-4.586c.087-.646.326-1.162.717-1.547.392-.385.923-.578 1.594-.578.709 0 1.262.19 1.66.569.397.379.602.898.615 1.556z" fill="#FFF" fill-rule="nonzero"/></g><path fill="#F7F9FA" mask="url(#c)" d="M0 84.926h555.123v2.071H0z"/><rect fill="#DCE2E6" mask="url(#c)" x="210.242" y="37.284" width="91.14" height="12.428" rx="6.214"/><g mask="url(#c)"><g transform="translate(167.484 28.703)"><circle stroke="#FFF" stroke-width="1.775" cx="14.795" cy="14.795" r="15.683"/><mask id="g" fill="#fff"><use xlink:href="#f"/></mask><use fill="#94F794" xlink:href="#f"/><g mask="url(#g)"><g transform="translate(4.439 1.184)"><use fill="#805540" xlink:href="#h"/><use fill="#000" filter="url(#i)" xlink:href="#h"/><use stroke="#643" stroke-width=".5" xlink:href="#h"/></g><g transform="translate(4.439 1.184)"><use fill="#F0C295" xlink:href="#j"/><use fill="#000" filter="url(#k)" xlink:href="#j"/><use stroke="#643" stroke-width=".5" xlink:href="#j"/></g><g transform="translate(4.439 1.184)"><use fill="#F0C295" xlink:href="#l"/><use fill="#000" filter="url(#m)" xlink:href="#l"/><use stroke="#643" stroke-width=".5" xlink:href="#l"/></g><g transform="translate(4.439 1.184)"><use fill="#A17EE6" xlink:href="#n"/><use fill="#000" filter="url(#o)" xlink:href="#n"/><use stroke="#6B5499" stroke-width=".5" xlink:href="#n"/></g><path d="M14.647 27.815c1.677 0 5.179-3.55 5.179-3.55l5.03 1.775v4.734s-11.885-2.959-10.209-2.959z" fill="#6B5499" opacity=".3"/><path d="M7.398 10.35c0-4.082 3.32-7.39 7.397-7.39a7.394 7.394 0 017.398 7.39v2.67l-.276 2.116c-.338 2.59-2.512 5.64-4.845 6.806l-1.478.74c-.441.22-1.149.224-1.597 0l-1.478-.74c-2.338-1.169-4.507-4.214-4.845-6.806l-.276-2.116v-2.67z" fill="#C40" opacity=".12" style="mix-blend-mode:multiply"/><g transform="translate(4.439 1.184)"><use fill="#F0C295" xlink:href="#p"/><use fill="#000" filter="url(#q)" xlink:href="#p"/><use stroke="#643" stroke-width=".5" xlink:href="#p"/></g><path d="M14.32 16.035a.591.591 0 00.951 0" stroke="#71432C" stroke-width=".5" opacity=".2"/><path d="M14.795 2.071a7.394 7.394 0 017.398 7.392v2.67l-.276 2.115c-.338 2.59-2.547 5.57-4.918 6.647l-1.392.633c-.29.132-.7.178-1.073.139l.394-.18c2.37-1.077 4.58-4.057 4.918-6.647l.276-2.116v-2.67a7.394 7.394 0 00-7.398-7.39l-.244.003a7.43 7.43 0 00-.732.06c.86-.39 1.807-.62 2.804-.652l.243-.004z" fill="#C40" opacity=".12"/><path d="M12.724 17.754c.589.747 1.303 1.184 2.071 1.184.77 0 1.483-.437 2.072-1.184h-4.143z" stroke="#D47F8D" stroke-width=".5" fill="#FFF" stroke-linecap="round" stroke-linejoin="round"/><g transform="translate(10.06 12.724)"><circle fill="#573A2B" opacity=".89" cx="1.184" cy=".888" r="1"/><path fill="#694B3C" d="M.888.592L0 .296l.888.888z"/><path d="M.888.888a.296.296 0 100-.592.296.296 0 000 .592z" fill="#FFF"/><circle fill="#FFF" opacity=".2" cx="1.48" cy="1.184" r="1"/></g><g transform="translate(17.459 12.724)"><circle fill="#573A2B" opacity=".89" cx=".888" cy=".888" r="1"/><path fill="#694B3C" d="M1.184.592L2.07.296l-.887.888z"/><path d="M.592.888a.296.296 0 100-.592.296.296 0 000 .592z" fill="#FFF"/><circle fill="#FFF" opacity=".2" cx="1.184" cy="1.184" r="1"/></g><path d="M15.52 12.375l-.241-.075a1.83 1.83 0 00-.967 0l-.24.075c-.147.045-.206.156-.133.247.073.091.25.128.397.083l.24-.075a.932.932 0 01.438 0l.24.075c.147.045.325.008.398-.083.073-.091.014-.202-.132-.247zM8.581 12.428h-1.48a.296.296 0 000 .592h1.48a.296.296 0 000-.592zM22.193 12.428H21.01a.296.296 0 000 .592h1.184a.296.296 0 000-.592z" fill="#453734" fill-rule="nonzero"/><path d="M8.73 12.498c.07-.548 1.578-.464 2.782-.464 1.205 0 2.491.312 2.356 1.364-.135 1.052-.392 1.985-2.356 2.109-1.963.124-2.853-2.462-2.783-3.01z" fill="#EFE8FD" opacity=".3"/><path d="M11.548 11.402c-1.43 0-3.18.26-3.263.678-.083.418.933 3.899 3.263 3.741 2.33-.158 2.636-1.344 2.796-2.683.16-1.338-1.367-1.736-2.796-1.736zm-.036.632c1.205 0 2.491.312 2.356 1.364-.135 1.052-.392 1.985-2.356 2.109-1.963.124-2.557-2.183-2.487-2.73.07-.548 1.283-.743 2.487-.743z" fill="#453734"/><g><path d="M20.861 12.498c-.07-.548-1.578-.464-2.782-.464-1.205 0-2.492.312-2.357 1.364.136 1.052.393 1.985 2.357 2.109 1.963.124 2.853-2.462 2.782-3.01z" fill="#EFE8FD" opacity=".3"/><path d="M18.043 11.402c1.43 0 3.179.26 3.262.678.084.418-.932 3.899-3.262 3.741-2.33-.158-2.636-1.344-2.796-2.683-.16-1.338 1.367-1.736 2.796-1.736zm.036.632c-1.205 0-2.492.312-2.357 1.364.136 1.052.393 1.985 2.357 2.109 1.963.124 2.557-2.183 2.487-2.73-.07-.548-1.283-.743-2.487-.743z" fill="#453734"/></g><g><path d="M5.622 14.5c.296-1.48.592-2.22.592-4.438 0-4.144 3.841-7.99 8.581-7.99 4.74 0 8.582 3.873 8.582 8.285 0 .86-.296 2.515.444 3.55-3.107.592-6.105-3.492-6.5-5.03-.454.593-.454 2.22-.158 2.811-2.526-.501-4.149-2.337-5.387-3.55-1.112 1.924-2.011 6.361-6.154 6.361z" fill="#C40" opacity=".12" style="mix-blend-mode:multiply"/><g stroke-linecap="round" stroke-linejoin="round" transform="translate(4.735 1.184)"><use fill="#99664D" xlink:href="#r"/><use fill="#000" filter="url(#s)" xlink:href="#r"/><use stroke="#643" stroke-width=".5" xlink:href="#r"/></g></g></g></g></g><g mask="url(#c)"><path d="M549.866 35.067l.118.107c.64.64.64 1.677.002 2.314l-4.974 4.975 4.974 4.974c.6.601.64 1.55.105 2.197l-.107.118c-.64.64-1.677.64-2.315.002l-4.974-4.974-4.975 4.974a1.633 1.633 0 01-2.314-.002 1.638 1.638 0 01-.003-2.315l4.975-4.974-4.975-4.975c-.6-.6-.639-1.55-.104-2.197l.107-.117c.64-.64 1.677-.64 2.314-.002l4.975 4.974 4.974-4.974c.601-.601 1.55-.64 2.197-.105z" fill="#DCE2E6"/></g></g><path d="M840.91 154.391a2.071 2.071 0 110 4.143 2.071 2.071 0 010-4.143zm6.215 0a2.071 2.071 0 110 4.143 2.071 2.071 0 010-4.143zm6.214 0a2.071 2.071 0 110 4.143 2.071 2.071 0 010-4.143z" fill="#DCE2E6"/><use fill="#FA0" xlink:href="#t" transform="translate(772.556 135.75)"/><path d="M793.632 161.952a.57.57 0 01.57.57v2.622c0 .15-.015.3-.044.447l-.537 2.682a.57.57 0 01-1.117 0l-.536-2.682a2.278 2.278 0 01-.045-.447v-2.623a.57.57 0 01.57-.57h1.14zm2.279-12.532a.57.57 0 01.57.57v5.126a2.848 2.848 0 002.847 2.848h1.425a1.424 1.424 0 010 2.849h-15.38a1.424 1.424 0 010-2.849h1.993a2.278 2.278 0 002.279-2.278v-5.696a.57.57 0 01.57-.57zm2.848-3.418a1.14 1.14 0 010 2.279h-11.393a1.14 1.14 0 010-2.279h11.393z" fill="#FFF"/><g transform="matrix(-1 0 0 1 1256 489)"><g transform="translate(255.592 .791)"><mask id="w" fill="#fff"><use xlink:href="#u"/></mask><use fill="#6D422D" xlink:href="#u"/><path d="M48.385 181.458c18.034 0 41.454-19.7 40.32-79.91-.164-8.702-7.913-12.938-15.29-33.024-4.818-13.114 10.001-27.864-6.34-39.423 6.02 6.973 7.104 15.139.69 15.139-6.413 0-15.12-15.898-23.914-11.664-13.88 6.683-21.242 30.9-21.242 58.674 0 32.73 7.741 90.208 25.776 90.208z" fill="url(#v)" opacity=".43" style="mix-blend-mode:soft-light" mask="url(#w)" transform="rotate(-26 55.677 105.28)"/></g><path fill="url(#x)" opacity=".2" d="M161.13 191.846L149.842 91.464 250.627 4.386l58.455 29.026-6.853 182.22z"/><g transform="translate(50.836 263.605)"><mask id="z" fill="#fff"><use xlink:href="#y"/></mask><use fill="#D8DCE4" transform="rotate(5 30.33 19.272)" xlink:href="#y"/><path stroke="#979797" stroke-width="4.838" opacity=".3" mask="url(#z)" d="M-4.838 32.715l60.943-.121"/></g><g transform="translate(86.677 252.537)"><mask id="C" fill="#fff"><use xlink:href="#A"/></mask><use fill="#CC8F52" transform="rotate(-4 18.077 15.147)" xlink:href="#A"/><path d="M17.61 9.86c0 4.434 5.24 8.062-4.435 13.303-9.675 5.24-17.738 5.644-27.816 4.031-10.079-1.612-8.87-1.21-2.822 2.822 6.047 4.032 27.816 2.42 30.638 2.42 2.822 0 21.367-12.901 21.367-15.723 0-2.822-.403-6.45-6.047-8.466C22.85 6.23 17.61 5.425 17.61 9.859z" fill="url(#B)" opacity=".2" style="mix-blend-mode:soft-light" mask="url(#C)"/></g><g transform="translate(.68 249.899)"><mask id="E" fill="#fff"><use xlink:href="#D"/></mask><use fill="#E0E3E8" transform="rotate(30 33.722 28.947)" xlink:href="#D"/><path stroke="#979797" stroke-width="4.838" opacity=".3" mask="url(#E)" d="M-.806 26.607l54.827 26.608"/></g><g transform="translate(105.553 204.913)"><mask id="I" fill="#fff"><use xlink:href="#F"/></mask><use fill="url(#G)" xlink:href="#F"/><path d="M138.33 3.785c0 11.707 5.054 21.149 5.054 24.925s-.337 7.553-8.423 3.776c-8.086-3.776-34.027-23.791-66.37-23.791S-40.566 55.9-40.566 64.587s-7.412 26.435 5.727 26.435c13.14 0 230.443-3.021 233.138-9.063 2.695-6.043 36.386-43.052 8.086-49.473-28.3-6.42-68.055-40.408-68.055-28.7z" fill="url(#H)" style="mix-blend-mode:soft-light" mask="url(#I)"/></g><g transform="translate(42.663 201.688)"><g transform="translate(.687 52.714)"><mask id="K" fill="#fff"><use xlink:href="#J"/></mask><use fill="#CC8F52" transform="rotate(-4 18.665 15.973)" xlink:href="#J"/><path d="M18.203 10.413c0 4.435 5.241 8.063-4.434 13.304-9.676 5.24-17.738 5.644-27.817 4.031-10.079-1.613-8.87-1.21-2.822 2.822 6.047 4.031 27.817 2.419 30.639 2.419 2.822 0 21.366-12.9 21.366-15.723 0-2.822-.403-6.45-6.047-8.466-5.644-2.015-10.885-2.822-10.885 1.613z" fill="url(#B)" opacity=".2" style="mix-blend-mode:soft-light" mask="url(#K)"/></g><mask id="O" fill="#fff"><use xlink:href="#L"/></mask><use fill="url(#M)" xlink:href="#L"/><path d="M216.026 16.362c0 12.498 6.047 22.576 6.047 26.608 0 4.031-.403 8.062-10.078 4.031-9.675-4.031-40.717-25.398-79.419-25.398-25.484 0-66.56 21.533-96.754 39.105-15.66 9.114-18.544-5.989-18.544-2.822 0 9.272-24.189 51.602-8.466 51.602 15.722 0 275.748-3.225 278.974-9.675 3.225-6.45 43.539-45.959 9.675-52.812-33.864-6.853-81.435-43.136-81.435-30.639z" fill="url(#N)" opacity=".34" style="mix-blend-mode:soft-light" mask="url(#O)"/></g><path d="M230.922 190.693l-13.288-2.072a44.84 44.84 0 00-18.512.993l-7.398 1.982a1.814 1.814 0 00-1.283 2.222 1.92 1.92 0 002.246 1.384l5.142-1.068c4.484-.931 9.15-.34 13.26 1.682l1.35.664-7.982 2.139a2.217 2.217 0 101.147 4.283l4.905-1.314a19.64 19.64 0 016.26-.634 10.438 10.438 0 005.926-1.428l3.742-2.206 23.637 4.1.173-7.141-19.325-3.586z" fill="#CC8F52"/><path d="M276.428 139.841c-10.482 61.278-36.686 43.136-46.361 41.524-9.676-1.613-14.917 16.125 0 19.754 14.916 3.628 49.183 14.513 67.324-39.508 10.796-32.148-17.272-43.348-20.963-21.77z" fill="url(#P)"/><g transform="translate(184.672 102.635)"><path d="M40.154 69.054l-12.3-5.44a44.84 44.84 0 00-18.137-3.832h-7.66a1.814 1.814 0 00-1.814 1.814 1.92 1.92 0 001.811 1.918l5.244.3A20.572 20.572 0 0119.67 68.87l1.132.99h-8.264a2.217 2.217 0 100 4.435h5.077c2.11 0 4.208.34 6.21 1.008 1.971.657 4.093.71 6.095.155l4.186-1.163 21.77 10.079 2.015-6.854-17.738-8.466z" fill="#CC8F52"/><mask id="T" fill="#fff"><use xlink:href="#Q"/></mask><use fill="url(#R)" xlink:href="#Q"/><path d="M94.578 78.73c8.869-4.435 31.445-11.692 39.508-46.765-9.407 24.189-24.458 38.433-45.152 42.733-2.15 5.644-.269 6.988 5.644 4.032z" fill="url(#S)" opacity=".6" style="mix-blend-mode:soft-light" mask="url(#T)"/><path d="M185.688 28.337c-24.457-41.658-35.611-45.958-33.46-12.9 3.224 49.586-20.561 71.355-50.394 86.272-7.999 4-17.335 18.544-10.481 33.863 6.853 15.32 46.17 35.555 70.55 12.901 16.252-15.103 24.18-55.148 23.785-120.136z" fill="url(#U)" opacity=".7" style="mix-blend-mode:soft-light" mask="url(#T)"/></g><g transform="rotate(-11 392.733 -1378.307)"><circle stroke="#FFD426" stroke-width="1.613" cx="8.811" cy="20.516" r="8.466"/><mask id="W" fill="#fff"><use xlink:href="#V"/></mask><use fill="#CC8F52" xlink:href="#V"/><circle stroke="#FFD426" stroke-width="1.613" mask="url(#W)" cx="35.391" cy="23.218" r="8.466"/><path d="M25.497 45.555c3.679 0 8.722 5.373 7.03 14.08-1.692 8.705-6.627 25.831-12.271 25.831-5.644 0-16.932 1.21-11.288 4.838 5.644 3.628 14.11 9.675 20.963 3.628 6.854-6.047 15.32-30.639 21.367-38.702 6.047-8.062 14.513-20.157 14.513-29.026s-11.288-55.23-22.98-55.23c-11.69 0-33.863 2.016-33.863 7.66 0 5.643-35.573 23.92-6.872 24.16 28.702.24 40.736 35.101 23.4 42.761z" fill="url(#X)" opacity=".4" style="mix-blend-mode:soft-light" mask="url(#W)"/></g><path stroke="#83838A" stroke-width="6.45" stroke-linecap="round" stroke-linejoin="round" d="M255.868 210.794l-93.932-18.948"/><path stroke="#83838A" stroke-width="4.838" stroke-linecap="round" stroke-linejoin="round" d="M161.13 191.846L149.842 91.464"/><ellipse fill="url(#Y)" opacity=".05" cx="183.302" cy="288.197" rx="143.921" ry="10.079"/></g><g transform="translate(40 484)"><path fill="url(#Z)" opacity=".2" d="M145.327 204.436l-10.08-89.64 90-77.76 52.2 25.92-6.12 162.72z"/><path d="M45.595 299.122a3.571 3.571 0 003.94 2.4l23.848-3.73a7.2 7.2 0 003.509-1.592l7.3-6.109a1.44 1.44 0 012.364 1.11l-.025 5.517a1.44 1.44 0 001.378 1.445l.96.041a2.258 2.258 0 002.356-2.245l.06-13.31a8.829 8.829 0 00-3.418-7.014 6.43 6.43 0 00-7.19-.47l-33.43 19.565a3.724 3.724 0 00-1.652 4.392z" fill="url(#aa)" transform="rotate(7 67.972 287.478)"/><use fill="#6E4F30" transform="rotate(-4 3758.776 -634.033)" xlink:href="#ab"/><path d="M5.275 294.802a3.571 3.571 0 003.94 2.4l23.848-3.73a7.2 7.2 0 003.509-1.592l7.3-6.109a1.44 1.44 0 012.364 1.11l-.025 5.517a1.44 1.44 0 001.378 1.445l.96.041a2.258 2.258 0 002.356-2.245l.06-13.31a8.829 8.829 0 00-3.418-7.014 6.43 6.43 0 00-7.19-.47L6.928 290.41a3.724 3.724 0 00-1.652 4.392z" fill="url(#aa)" transform="rotate(30 27.652 283.158)"/><g transform="translate(95.698 216.105)"><mask id="af" fill="#fff"><use xlink:href="#ac"/></mask><use fill="url(#ad)" xlink:href="#ac"/><path d="M123.527 3.38c0 10.454 4.513 18.885 4.513 22.258 0 3.372-.301 6.744-7.522 3.372-7.22-3.372-30.386-21.246-59.267-21.246-28.882 0-97.476 42.155-97.476 49.911s-6.619 23.607 5.114 23.607 205.783-2.698 208.19-8.094c2.406-5.396 32.491-38.445 7.22-44.178-25.272-5.733-60.772-36.084-60.772-25.63z" fill="url(#ae)" style="mix-blend-mode:soft-light" mask="url(#af)"/></g><g transform="translate(12.178 213.225)"><g transform="translate(.613 47.073)"><mask id="ai" fill="#fff"><use xlink:href="#ag"/></mask><use fill="#825E39" transform="rotate(-4 30.641 15.3)" xlink:href="#ag"/><path d="M43.615 9.299c0 3.96 4.68 7.2-3.96 11.88-8.64 4.68-15.84 5.04-24.84 3.6s-7.92-1.08-2.52 2.52 24.84 2.16 27.36 2.16c2.52 0 19.08-11.52 19.08-14.04 0-2.52-.36-5.76-5.4-7.56-5.04-1.8-9.72-2.52-9.72 1.44z" fill="url(#ah)" opacity=".3" style="mix-blend-mode:soft-light" mask="url(#ai)"/></g><mask id="am" fill="#fff"><use xlink:href="#aj"/></mask><use fill="url(#ak)" xlink:href="#aj"/><path d="M220.269 14.611c0 11.16 5.4 20.16 5.4 23.76 0 3.6-.36 7.2-9 3.6s-36.36-22.68-70.92-22.68c-22.757 0-59.437 19.229-86.4 34.92-13.985 8.139-16.56-5.348-16.56-2.52 0 8.28-21.6 46.08-7.56 46.08 14.04 0 246.24-2.88 249.12-8.64 2.88-5.76 38.88-41.04 8.64-47.16-30.24-6.12-72.72-38.52-72.72-27.36z" fill="url(#al)" opacity=".34" style="mix-blend-mode:soft-light" mask="url(#am)"/></g><path d="M207.65 203.406l-11.866-1.85a40.041 40.041 0 00-16.53.887l-6.607 1.77a1.62 1.62 0 00-1.146 1.984 1.715 1.715 0 002.006 1.236l4.592-.954a18.37 18.37 0 0111.841 1.502l1.206.593-7.129 1.91a1.98 1.98 0 101.025 3.825l4.38-1.174a17.538 17.538 0 015.59-.566 9.32 9.32 0 005.292-1.275l3.342-1.97 21.107 3.662.154-6.377-17.257-3.203z" fill="#825E39"/><path d="M248.287 157.996c-9.36 54.72-32.76 38.52-41.4 37.08-8.64-1.44-13.32 14.4 0 17.64s43.92 12.96 60.12-35.28c9.64-28.707-15.424-38.708-18.72-19.44z" fill="#FFC400"/><g transform="translate(166.35 124.772)"><path d="M35.857 61.664l-10.983-4.857a40.041 40.041 0 00-16.197-3.423h-6.84a1.62 1.62 0 00-1.62 1.62c0 .91.71 1.661 1.617 1.713l4.683.267A18.37 18.37 0 0117.566 61.5l1.01.884h-7.38a1.98 1.98 0 000 3.96h4.535c1.885 0 3.758.304 5.546.9a9.32 9.32 0 005.442.139l3.738-1.039 19.44 9 1.8-6.12-15.84-7.56z" fill="#825E39"/><mask id="ap" fill="#fff"><use xlink:href="#an"/></mask><use fill="#FFD426" xlink:href="#an"/><path d="M84.457 70.304c7.92-3.96 28.08-10.44 35.28-41.76-8.4 21.6-21.84 34.32-40.32 38.16-1.92 5.04-.24 6.24 5.04 3.6z" fill="url(#ao)" opacity=".6" style="mix-blend-mode:soft-light" mask="url(#ap)"/><path d="M165.817 25.304c-21.84-37.2-31.8-41.04-29.88-11.52 2.88 44.28-18.36 63.72-45 77.04-7.144 3.572-15.48 16.56-9.36 30.24 6.12 13.68 41.23 31.75 63 11.52 14.513-13.486 21.593-49.246 21.24-107.28z" fill="url(#aq)" opacity=".7" style="mix-blend-mode:soft-light" mask="url(#ap)"/></g><path d="M264.68 95.53c14.832-2.884 24.52-17.246 21.636-32.078-2.883-14.833-17.245-24.52-32.078-21.637-14.833 2.883-24.52 17.245-21.637 32.078 2.883 14.833 17.245 24.52 32.078 21.636z" fill="#C99051"/><g transform="rotate(-11 215.91 -1109.566)"><mask id="at" fill="#fff"><use xlink:href="#ar"/></mask><use fill="#D49D61" xlink:href="#ar"/><path d="M72.73 62.394c1.702 0 11.214-3.354 12.86-3.557-8.166 4.28-7.058 5-6.72 5.899 1.556 4.13 2.7 10.85 2.7 15.504 0 21.274-18.025 36.262-39.895 36.262-21.87 0-39.6-17.246-39.6-38.52 0-5.024 11.65-7.093 13.448-11.494 1.077-2.635-8.216-7.858-6.596-10.17a38.914 38.914 0 013.935-4.761c.12.003.241.003.361.003 8.179 0 15.778-2.411 22.088-6.543 1.023-.67-9.035-20.146-2.229-8.489 6.807 11.657 24.88 25.866 39.648 25.866z" fill="url(#as)" opacity=".6" style="mix-blend-mode:soft-light" mask="url(#at)"/></g><g transform="rotate(-11 466.246 -1227.544)"><mask id="aw" fill="#fff"><use xlink:href="#au"/></mask><use fill="#825E39" xlink:href="#au"/><path d="M20.608 51.48c3.285 0 7.79 4.798 6.278 12.573-1.511 7.774-5.918 23.067-10.958 23.067S.808 88.2 5.848 91.44c5.04 3.24 12.6 8.64 18.72 3.24 6.12-5.4 13.68-27.36 19.08-34.56 5.4-7.2 12.96-18 12.96-25.92 0-7.92-10.08-49.32-20.52-49.32s-30.24 1.8-30.24 6.84-17.28 3.24-6.84 11.88c10.44 8.64 27-9 34.2 20.52 2.831 11.608 2.88 20.52-12.6 27.36z" fill="url(#av)" opacity=".4" style="mix-blend-mode:soft-light" mask="url(#aw)"/></g><g transform="rotate(-7 1165.814 -2103.984)" fill="#F9F9F9"><circle cx="2.52" cy="2.52" r="2.52"/><circle cx="19.08" cy="3.24" r="2.52"/><circle cx="16.2" cy="6.84" r="2.52"/><circle cx="11.88" cy="8.28" r="2.52"/><circle cx="7.56" cy="8.28" r="2.52"/><circle cx="3.24" cy="6.84" r="2.52"/></g><path stroke="#F2C77C" stroke-width="1.44" stroke-linecap="round" stroke-linejoin="round" d="M249.15 81.678l40.43-8.301"/><path d="M269.581 92.516c5.27-1.024 8.65-6.443 7.55-12.103-1.1-5.66-6.265-9.418-11.534-8.393-5.27 1.024-8.65 6.443-7.55 12.103 1.1 5.66 6.264 9.417 11.534 8.393zM250.034 95.862c4.489-.872 7.267-6.01 6.204-11.475-1.062-5.464-5.562-9.187-10.05-8.314-4.49.872-7.268 6.01-6.205 11.474 1.062 5.465 5.562 9.188 10.05 8.315z" fill="#2B292C"/><path stroke="#83838A" stroke-width="5.76" stroke-linecap="round" stroke-linejoin="round" d="M229.927 221.356l-83.88-16.92"/><path stroke="#83838A" stroke-width="4.32" stroke-linecap="round" stroke-linejoin="round" d="M145.327 204.436l-10.08-89.64"/><ellipse fill="url(#ax)" opacity=".05" cx="165.127" cy="290.476" rx="128.52" ry="9"/></g><g transform="translate(386 538)"><use fill="#000" filter="url(#ay)" xlink:href="#az"/><use fill="#FFF" xlink:href="#az"/><rect fill="#DCE2E6" x="46" y="20" width="278" height="12" rx="6"/><rect fill="#DCE2E6" x="46" y="44" width="185" height="12" rx="6"/></g><g><g transform="translate(477 641)"><g transform="matrix(-1 0 0 1 377 0)"><use fill="#000" filter="url(#aA)" xlink:href="#aB"/><use fill="#FFF" xlink:href="#aB"/></g><rect fill="#DCE2E6" x="20" y="20" width="127" height="12" rx="6"/><rect fill="#DCE2E6" x="20" y="44" width="191" height="12" rx="6"/><rect fill="#DCE2E6" x="20" y="68" width="153" height="12" rx="6"/><rect fill="#DCE2E6" x="20" y="92" width="123" height="12" rx="6"/></g><g transform="translate(712 661)"><mask id="aE" fill="#fff"><use xlink:href="#aC"/></mask><use fill="#000" filter="url(#aD)" xlink:href="#aC"/><use fill="#FFF2B3" xlink:href="#aC"/><g mask="url(#aE)"><path d="M21.362 34.7l13.988 8.076A13.32 13.32 0 0034.667 47c0 1.476.24 2.897.683 4.224L21.362 59.3A29.224 29.224 0 0118.667 47c0-4.392.965-8.56 2.695-12.3z" fill="#FF4019"/><path d="M24.033 30.083c4.83-6.83 12.505-11.504 21.3-12.297v16.147a13.32 13.32 0 00-7.314 4.226l-13.986-8.076z" fill="#A179F2"/><path d="M74.638 59.3L60.65 51.224A13.32 13.32 0 0061.333 47c0-1.476-.24-2.897-.683-4.224L74.638 34.7A29.224 29.224 0 0177.333 47c0 4.392-.965 8.56-2.695 12.3z" fill="#96DB0B"/><path d="M71.967 63.917c-4.83 6.83-12.505 11.504-21.3 12.297V60.067a13.32 13.32 0 007.314-4.226l13.986 8.076z" fill="#FFD426"/><path d="M24.033 63.917l13.986-8.076a13.32 13.32 0 007.314 4.226v16.147c-8.795-.793-16.47-5.467-21.3-12.297z" fill="#FA0"/><path d="M71.967 30.083L57.981 38.16a13.32 13.32 0 00-7.314-4.226V17.786c8.795.793 16.47 5.467 21.3 12.297z" fill="#0AF"/></g></g></g></g></svg>